<?xml version="1.0" encoding="utf-8"?>
<svg viewBox="0 0 500 500" xmlns="http://www.w3.org/2000/svg">
  <path id="mainsymbolpath" style="opacity: 0.5; fill: rgb(0, 0, 0); fill-opacity: 1; stroke: none;" d="M 324.422 248.983 C 324.422 289.405 291.468 322.174 250.814 322.174 C 210.16 322.174 177.203 289.405 177.203 248.983 C 177.203 208.561 210.16 175.794 250.814 175.794 C 291.468 175.794 324.422 208.561 324.422 248.983 Z M 250.784 0.804 C 123.289 0.804 18.124 95.822 3.02 218.527 L 137.148 218.527 C 150.625 168.68 196.39 132.008 250.784 132.008 C 305.174 132.008 350.99 168.68 364.483 218.527 L 498.608 218.527 C 483.496 95.822 378.275 0.804 250.784 0.804 Z M 3.02 279.463 C 18.124 402.169 123.289 497.184 250.784 497.184 C 378.275 497.184 483.496 402.169 498.608 279.463 L 364.483 279.463 C 350.99 329.311 305.174 365.98 250.784 365.98 C 196.39 365.98 150.625 329.311 137.148 279.463 L 3.02 279.463 Z"/>
</svg>